<svg xmlns="http://www.w3.org/2000/svg" xmlns:xlink="http://www.w3.org/1999/xlink" width="500" zoomAndPan="magnify" viewBox="0 0 375 374.999991" height="500" preserveAspectRatio="xMidYMid meet" version="1.0"><defs><clipPath id="id1"><path d="M 131.25 37.5 L 243.75 37.5 L 243.75 70.5 L 131.25 70.5 Z M 131.25 37.5 " clip-rule="nonzero"/></clipPath><clipPath id="id2"><path d="M 131.25 70.484375 L 243.75 70.484375 L 243.75 156.734375 L 131.25 156.734375 Z M 131.25 70.484375 " clip-rule="nonzero"/></clipPath><clipPath id="id3"><path d="M 37.5 218.519531 L 150 218.519531 L 150 251.519531 L 37.5 251.519531 Z M 37.5 218.519531 " clip-rule="nonzero"/></clipPath><clipPath id="id4"><path d="M 37.5 251.503906 L 150 251.503906 L 150 337.753906 L 37.5 337.753906 Z M 37.5 251.503906 " clip-rule="nonzero"/></clipPath><clipPath id="id5"><path d="M 225 218.519531 L 337.5 218.519531 L 337.5 251.519531 L 225 251.519531 Z M 225 218.519531 " clip-rule="nonzero"/></clipPath><clipPath id="id6"><path d="M 225 251.503906 L 337.5 251.503906 L 337.5 337.753906 L 225 337.753906 Z M 225 251.503906 " clip-rule="nonzero"/></clipPath></defs><rect x="-37.5" width="450" fill="#ffffff" y="-37.499999" height="449.999989" fill-opacity="1"/><rect x="-37.5" width="450" fill="#ffffff" y="-37.499999" height="449.999989" fill-opacity="1"/><rect x="-37.5" width="450" fill="#ff914d" y="-37.499999" height="449.999989" fill-opacity="1"/><g clip-path="url(#id1)"><path fill="#ffffff" d="M 131.261719 37.5 L 243.738281 37.5 L 243.738281 70.5 L 131.261719 70.5 L 131.261719 37.5 " fill-opacity="1" fill-rule="nonzero"/></g><g clip-path="url(#id2)"><path fill="#d9d9d9" d="M 131.25 70.484375 L 243.75 70.484375 L 243.75 156.734375 L 131.25 156.734375 L 131.25 70.484375 " fill-opacity="1" fill-rule="nonzero"/></g><g clip-path="url(#id3)"><path fill="#ffffff" d="M 37.511719 218.519531 L 149.988281 218.519531 L 149.988281 251.519531 L 37.511719 251.519531 L 37.511719 218.519531 " fill-opacity="1" fill-rule="nonzero"/></g><g clip-path="url(#id4)"><path fill="#d9d9d9" d="M 37.5 251.503906 L 150 251.503906 L 150 337.753906 L 37.5 337.753906 L 37.5 251.503906 " fill-opacity="1" fill-rule="nonzero"/></g><g clip-path="url(#id5)"><path fill="#ffffff" d="M 225.011719 218.519531 L 337.488281 218.519531 L 337.488281 251.519531 L 225.011719 251.519531 L 225.011719 218.519531 " fill-opacity="1" fill-rule="nonzero"/></g><g clip-path="url(#id6)"><path fill="#d9d9d9" d="M 225 251.503906 L 337.5 251.503906 L 337.5 337.753906 L 225 337.753906 L 225 251.503906 " fill-opacity="1" fill-rule="nonzero"/></g><path stroke-linecap="butt" transform="matrix(3.785714, 0, 0, 3.75, 91.874998, 113.481665)" fill="none" stroke-linejoin="miter" d="M 0.750148 -0.000318879 L 9.749853 -0.000318879 " stroke="#ffffff" stroke-width="1" stroke-opacity="1" stroke-miterlimit="4"/><path fill="#ffffff" d="M 93.769531 105.980469 C 94.019531 105.980469 94.261719 106.027344 94.492188 106.125 C 94.722656 106.21875 94.929688 106.355469 95.105469 106.53125 C 95.285156 106.707031 95.421875 106.910156 95.515625 107.140625 C 95.613281 107.367188 95.660156 107.609375 95.660156 107.855469 L 95.660156 119.105469 C 95.660156 119.355469 95.613281 119.59375 95.515625 119.824219 C 95.421875 120.054688 95.285156 120.257812 95.105469 120.433594 C 94.929688 120.609375 94.722656 120.742188 94.492188 120.839844 C 94.261719 120.933594 94.019531 120.980469 93.769531 120.980469 C 93.515625 120.980469 93.277344 120.933594 93.042969 120.839844 C 92.8125 120.742188 92.605469 120.609375 92.429688 120.433594 C 92.25 120.257812 92.113281 120.054688 92.019531 119.824219 C 91.921875 119.59375 91.875 119.355469 91.875 119.105469 L 91.875 107.855469 C 91.875 107.609375 91.921875 107.367188 92.019531 107.140625 C 92.113281 106.910156 92.25 106.707031 92.429688 106.53125 C 92.605469 106.355469 92.8125 106.21875 93.042969 106.125 C 93.277344 106.027344 93.515625 105.980469 93.769531 105.980469 Z M 93.769531 105.980469 " fill-opacity="1" fill-rule="nonzero"/><path fill="#ffffff" d="M 129.730469 105.980469 C 129.984375 105.980469 130.222656 106.027344 130.457031 106.125 C 130.6875 106.21875 130.894531 106.355469 131.070312 106.53125 C 131.25 106.707031 131.386719 106.910156 131.480469 107.140625 C 131.578125 107.367188 131.625 107.609375 131.625 107.855469 L 131.625 119.105469 C 131.625 119.355469 131.578125 119.59375 131.480469 119.824219 C 131.386719 120.054688 131.25 120.257812 131.070312 120.433594 C 130.894531 120.609375 130.6875 120.742188 130.457031 120.839844 C 130.222656 120.933594 129.984375 120.980469 129.730469 120.980469 C 129.480469 120.980469 129.238281 120.933594 129.007812 120.839844 C 128.777344 120.742188 128.570312 120.609375 128.394531 120.433594 C 128.214844 120.257812 128.078125 120.054688 127.984375 119.824219 C 127.886719 119.59375 127.839844 119.355469 127.839844 119.105469 L 127.839844 107.855469 C 127.839844 107.609375 127.886719 107.367188 127.984375 107.140625 C 128.078125 106.910156 128.214844 106.707031 128.394531 106.53125 C 128.570312 106.355469 128.777344 106.21875 129.007812 106.125 C 129.238281 106.027344 129.480469 105.980469 129.730469 105.980469 Z M 129.730469 105.980469 " fill-opacity="1" fill-rule="nonzero"/><path stroke-linecap="butt" transform="matrix(0.00000000000000023, 3.762354, -3.75, 0.00000000000000023, 93.747949, 115.358724)" fill="none" stroke-linejoin="miter" d="M 0.00017313 0.000494665 L 23.760441 0.000494665 " stroke="#ffffff" stroke-width="1" stroke-opacity="1" stroke-miterlimit="4"/><path stroke-linecap="butt" transform="matrix(0.00000000000000023, 3.762354, -3.75, 0.00000000000000023, 93.747949, 218.862847)" fill-opacity="1" fill="#ffffff" fill-rule="nonzero" stroke-linejoin="round" d="M -3.499813 -1.499505 L -0.500319 -1.499505 L -0.500319 1.500495 L -3.499813 1.500495 Z M -3.499813 -1.499505 " stroke="#ffffff" stroke-width="1" stroke-opacity="1" stroke-miterlimit="4"/><path stroke-linecap="butt" transform="matrix(3.785714, 0, 0, 3.75, 243.749988, 113.481665)" fill="none" stroke-linejoin="miter" d="M 0.75015 -0.000318879 L 9.749856 -0.000318879 " stroke="#ffffff" stroke-width="1" stroke-opacity="1" stroke-miterlimit="4"/><path fill="#ffffff" d="M 245.644531 105.980469 C 245.894531 105.980469 246.136719 106.027344 246.367188 106.125 C 246.597656 106.21875 246.804688 106.355469 246.980469 106.53125 C 247.160156 106.707031 247.296875 106.910156 247.390625 107.140625 C 247.488281 107.367188 247.535156 107.609375 247.535156 107.855469 L 247.535156 119.105469 C 247.535156 119.355469 247.488281 119.59375 247.390625 119.824219 C 247.296875 120.054688 247.160156 120.257812 246.980469 120.433594 C 246.804688 120.609375 246.597656 120.742188 246.367188 120.839844 C 246.136719 120.933594 245.894531 120.980469 245.644531 120.980469 C 245.390625 120.980469 245.148438 120.933594 244.917969 120.839844 C 244.6875 120.742188 244.480469 120.609375 244.304688 120.433594 C 244.125 120.257812 243.988281 120.054688 243.894531 119.824219 C 243.796875 119.59375 243.75 119.355469 243.75 119.105469 L 243.75 107.855469 C 243.75 107.609375 243.796875 107.367188 243.894531 107.140625 C 243.988281 106.910156 244.125 106.707031 244.304688 106.53125 C 244.480469 106.355469 244.6875 106.21875 244.917969 106.125 C 245.148438 106.027344 245.390625 105.980469 245.644531 105.980469 Z M 245.644531 105.980469 " fill-opacity="1" fill-rule="nonzero"/><path fill="#ffffff" d="M 281.605469 105.980469 C 281.859375 105.980469 282.097656 106.027344 282.332031 106.125 C 282.5625 106.21875 282.769531 106.355469 282.945312 106.53125 C 283.125 106.707031 283.261719 106.910156 283.355469 107.140625 C 283.453125 107.367188 283.5 107.609375 283.5 107.855469 L 283.5 119.105469 C 283.5 119.355469 283.453125 119.59375 283.355469 119.824219 C 283.261719 120.054688 283.125 120.257812 282.945312 120.433594 C 282.769531 120.609375 282.5625 120.742188 282.332031 120.839844 C 282.097656 120.933594 281.859375 120.980469 281.605469 120.980469 C 281.355469 120.980469 281.113281 120.933594 280.882812 120.839844 C 280.652344 120.742188 280.445312 120.609375 280.269531 120.433594 C 280.089844 120.257812 279.953125 120.054688 279.859375 119.824219 C 279.761719 119.59375 279.714844 119.355469 279.714844 119.105469 L 279.714844 107.855469 C 279.714844 107.609375 279.761719 107.367188 279.859375 107.140625 C 279.953125 106.910156 280.089844 106.707031 280.269531 106.53125 C 280.445312 106.355469 280.652344 106.21875 280.882812 106.125 C 281.113281 106.027344 281.355469 105.980469 281.605469 105.980469 Z M 281.605469 105.980469 " fill-opacity="1" fill-rule="nonzero"/><path stroke-linecap="butt" transform="matrix(0.00000000000000023, 3.76192, -3.75, 0.00000000000000023, 281.247936, 111.608724)" fill="none" stroke-linejoin="miter" d="M 0.000173084 0.000491382 L 24.760011 0.000491382 " stroke="#ffffff" stroke-width="1" stroke-opacity="1" stroke-miterlimit="4"/><path stroke-linecap="butt" transform="matrix(0.00000000000000023, 3.76192, -3.75, 0.00000000000000023, 281.247936, 218.862847)" fill-opacity="1" fill="#ffffff" fill-rule="nonzero" stroke-linejoin="round" d="M -3.500216 -1.499509 L -0.500377 -1.499509 L -0.500377 1.500491 L -3.500216 1.500491 Z M -3.500216 -1.499509 " stroke="#ffffff" stroke-width="1" stroke-opacity="1" stroke-miterlimit="4"/><path stroke-linecap="butt" transform="matrix(3.75, 0, 0, 3.75, 149.999995, 294.502598)" fill="none" stroke-linejoin="miter" d="M 0.750001 0.000348797 L 19.250003 0.000348797 " stroke="#ffffff" stroke-width="1" stroke-opacity="1" stroke-miterlimit="4"/><path fill="#ffffff" d="M 151.875 287.003906 C 152.125 287.003906 152.363281 287.050781 152.59375 287.144531 C 152.820312 287.242188 153.023438 287.375 153.199219 287.550781 C 153.375 287.726562 153.511719 287.929688 153.605469 288.160156 C 153.703125 288.390625 153.75 288.628906 153.75 288.878906 L 153.75 300.128906 C 153.75 300.375 153.703125 300.617188 153.605469 300.84375 C 153.511719 301.074219 153.375 301.277344 153.199219 301.453125 C 153.023438 301.628906 152.820312 301.765625 152.59375 301.859375 C 152.363281 301.953125 152.125 302.003906 151.875 302.003906 C 151.625 302.003906 151.386719 301.953125 151.15625 301.859375 C 150.929688 301.765625 150.726562 301.628906 150.550781 301.453125 C 150.375 301.277344 150.238281 301.074219 150.144531 300.84375 C 150.046875 300.617188 150 300.375 150 300.128906 L 150 288.878906 C 150 288.628906 150.046875 288.390625 150.144531 288.160156 C 150.238281 287.929688 150.375 287.726562 150.550781 287.550781 C 150.726562 287.375 150.929688 287.242188 151.15625 287.144531 C 151.386719 287.050781 151.625 287.003906 151.875 287.003906 Z M 151.875 287.003906 " fill-opacity="1" fill-rule="nonzero"/><path fill="#ffffff" d="M 223.125 287.003906 C 223.375 287.003906 223.613281 287.050781 223.84375 287.144531 C 224.070312 287.242188 224.273438 287.375 224.449219 287.550781 C 224.625 287.726562 224.761719 287.929688 224.855469 288.160156 C 224.953125 288.390625 225 288.628906 225 288.878906 L 225 300.128906 C 225 300.375 224.953125 300.617188 224.855469 300.84375 C 224.761719 301.074219 224.625 301.277344 224.449219 301.453125 C 224.273438 301.628906 224.070312 301.765625 223.84375 301.859375 C 223.613281 301.953125 223.375 302.003906 223.125 302.003906 C 222.875 302.003906 222.636719 301.953125 222.40625 301.859375 C 222.179688 301.765625 221.976562 301.628906 221.800781 301.453125 C 221.625 301.277344 221.488281 301.074219 221.394531 300.84375 C 221.296875 300.617188 221.25 300.375 221.25 300.128906 L 221.25 288.878906 C 221.25 288.628906 221.296875 288.390625 221.394531 288.160156 C 221.488281 287.929688 221.625 287.726562 221.800781 287.550781 C 221.976562 287.375 222.179688 287.242188 222.40625 287.144531 C 222.636719 287.050781 222.875 287.003906 223.125 287.003906 Z M 223.125 287.003906 " fill-opacity="1" fill-rule="nonzero"/></svg>